<svg xmlns="http://www.w3.org/2000/svg" xml:space="preserve" width="517.333" height="113.333"><defs><linearGradient id="b" x1="0" x2="1" y1="0" y2="0" gradientTransform="scale(85.02323 -85.02323) rotate(-41.955 .225 -1.015)" gradientUnits="userSpaceOnUse" spreadMethod="pad"><stop offset="0" style="stop-opacity:1;stop-color:#ff3b00"/><stop offset=".413" style="stop-opacity:1;stop-color:#ff7900"/><stop offset="1" style="stop-opacity:1;stop-color:#ffd302"/></linearGradient><linearGradient id="c" x1="0" x2="1" y1="0" y2="0" gradientTransform="scale(85.0234 -85.0234) rotate(-41.955 .036 -.942)" gradientUnits="userSpaceOnUse" spreadMethod="pad"><stop offset="0" style="stop-opacity:1;stop-color:#ff3b00"/><stop offset=".413" style="stop-opacity:1;stop-color:#ff7900"/><stop offset="1" style="stop-opacity:1;stop-color:#ffd302"/></linearGradient><clipPath id="a" clipPathUnits="userSpaceOnUse"><path d="M0 85h388V0H0Z"/></clipPath><clipPath id="d" clipPathUnits="userSpaceOnUse"><path d="M0 85h388V0H0Z"/></clipPath></defs><g clip-path="url(#a)" transform="matrix(1.33333 0 0 -1.33333 0 113.333)"><path d="M0 0c-.782 2.453-2.481 4.115-5.106 4.722-2.606.603-5.01.68-6.759-1.843-.494-.712-1.136-1.319-1.664-2.01-1.787-2.336-2.371-4.895-1.151-7.657a15.982 15.982 0 0 1 2.984-4.469c2.64-2.807 3.821-2.95 7.478-1.506.818.323 1.379.982 2.26 1.227 2.164.601 3.765 2.938 3.702 5.33C2.07-4.025.67-2.1 0 0" style="fill:#ff3b00;fill-opacity:1;fill-rule:nonzero;stroke:none" transform="translate(61.04 32.474)"/><path d="M0 0c-2.286 1.634-2.993 1.622-5.36-.09-1.218-.934-2.789-1.465-3.276-3.198-.458-1.628-.288-3.174.508-4.596.865-1.546 2.567-2.217 3.866-3.314.137-.116.429-.119.628-.076 1.647.353 3.464.241 4.721 1.687a.826.826 0 0 1 .199.299c.525.786 1.148 1.541 1.42 2.407C3.468-4.465 2.26-1.615 0 0" style="fill:#ffd302;fill-opacity:1;fill-rule:nonzero;stroke:none" transform="translate(114.544 83.79)"/><path d="M0 0c-.225 2.168.136 4.506-2.289 5.823-.501.272-.55.938-.758 1.47-.394 1.007-1.215 1.731-2.364 1.535-1.824-.312-3.725-.3-5.434-1.158-1.555-.2-2.475-1.011-2.54-2.643-.579-.713-.318-1.709-.778-2.437-.964-1.527-.486-3.005-.034-4.534.203-.689 1.048-.905 1.116-1.522.204-1.871 1.594-2.386 3.039-2.891.668-.777 1.535-.231 2.302-.346l.834-.183c1.808-.184 3.24.351 4.034 2.108 1.018.409 2.014.771 1.869 2.23C-1.097-1.594.114-1.094 0 0" style="fill:#ff7900;fill-opacity:1;fill-rule:nonzero;stroke:none" transform="translate(79.786 66.923)"/></g><path d="M105.096 66.029a3.275 3.275 0 0 1-.431-.133 18.465 18.465 0 0 1-5.596-1.785l-2.554-.908c-.325.074-.697.051-.878.424l-.068.083c1.311.645 2.732 1.111 3.67 2.383-1.505-.399-2.907-1.015-4.186-1.91-1.856-.834-3.674-1.735-5.255-3.043-2.22-1.219-4.31-2.619-6.14-4.383-1.763-.752-3.744-1.071-5.12-2.589v-.003c-.341-.052-.597-.221-.738-.547-1.201-.752-2.169-1.729-2.87-2.965-1.245-1.193-1.776-2.727-2.08-4.369h.001c-.327-.225-.382-.557-.351-.923-.465-1.217-1.387-2.208-1.721-3.489-.762-1.201-1.236-2.501-1.344-3.926-.572-1.546-.93-3.129-.833-4.79-.047-3.044-.567-6.046-.801-9.067-.308-3.994.064-7.969 1.476-11.779.674.156.55.705.59 1.181.052.608-.198 1.291.415 1.768.619-2.699 1.262-5.389 2.725-7.792.092-.408.208-.932.714-.785.268.077.162.632.056.964-.082.258-.234.494-.356.738v.001l-.555 3.797c.231.417-.108 1.04.48 1.327 1.16-2.26 1.442-4.794 2.211-7.178.296-.918.429-1.803 1.569-2.143.241.701.21 1.432.698 2.009.391.462.345 1.085.257 1.664-.095.635-.529 1.265-.298 1.89.267.722 1.385.275 1.71 1.045.707.383 1.394.135 2.083-.064.523-.15 1.165-.11 1.357.345.5 1.181 1.728 1.926 1.892 3.282.635 1.088 1.42 2.102 1.672 3.38.818.915.006 2.211.735 3.147 1.506-1.08 2.37-.947 2.919.61.428 1.213.738 2.498.258 3.802.098.449.051.889-.084 1.324.004.714.066 1.433.003 2.14-.222 2.475.081 4.84 1.341 7.027.312.177.471.45.519.796a.54.54 0 0 1 .367.486l3.53 3.802 4.778 3.544c1.688.722 3.328 1.524 4.758 2.7 2.169 1.042 4.283 2.204 6.546 3.044.52-.037 1.025-.013 1.437.37h.002l.741.099c.651-.056 1.295-.076 1.857.346l.002.001.752.074 1.292.027 4.37-.144c.992-.836 1.586-.043 2.23.547l3.336-.937.518-.234.898-.132.436-.035c.286-.363.678-.476 1.114-.434.099.009.272.137.268.199-.019.252-.256.272-.447.331h-.001.001l.818.822.414-.132c.092-.215.252-.324.488-.317l2.11-.93c.311-.337.746-.679 1.072-.231.205.282-.237.594-.607.698l-.453.412c.139.251.372.35.634.447.795.293.921.737.239 1.314l-.03-.016c.651.86 1.174.061 1.643-.202 1.454-.815 2.853-1.724 4.274-2.597l.249.421c-1.76 1.262-3.502 2.552-5.599 3.284-.213.352-.521.511-.929.462-.228.611-.732.795-1.318.853-.304.416-.316 1.055-.94 1.226-1.102.37-.296 1.101-.317 1.675l3.35-1.253c.851-.668 1.839-.964 2.909-1.075-.647.801-1.514 1.218-2.438 1.542-1.277.637-2.469 1.456-3.872 1.824-2.579 1.265-4.97 2.848-7.403 4.361.191.375.57.367.907.447 1.02-.366 2.058-.689 3.058-1.104 4.285-1.779 8.389-3.943 12.56-5.964.725-.35 1.414-1.086 2.37-.63.042.653-.347.972-.79 1.245-.864.531-1.717 1.081-2.603 1.575-4.815 2.68-9.747 5.095-15.089 6.568-3.59 1.471-7.373 1.987-11.205 2.12-.514.018-1.027.028-1.539.028-2.651 0-5.283-.266-7.84-1.083m10.891-10.207c.023-.01.047-.009.071-.017a.067.067 0 0 1-.007-.017c-.022.014-.043.015-.064.034m17.112-.958a.049.049 0 0 0 .011.004l.001-.01a.034.034 0 0 0-.012.006m-7.948-1.677c.005.008.004.016.008.023l.011-.024-.019.001M69.601 26.16c-.006.037-.005.074-.011.111.007-.038.007-.076.013-.115l-.002.004m.606-8.644c.019.007.046.011.063.019v-.17c-.026.049-.04.1-.063.151" style="fill:url(#b);stroke:none" transform="matrix(1.33333 0 0 -1.33333 0 113.333)"/><path d="M106.064 68.034a3.383 3.383 0 0 0-.482.007c-.466.028-.933.057-1.266-.446l-1.302-.047v-.001c-.985-.197-2.009-.298-2.753-1.144.957.112 1.895.265 2.75.752.089.002.178-.001.268-.006.401-.016.802-.032 1.042.44l1.738.054c3.036.537 6.1.339 9.157.33.472-.424.965-.54 1.564-.096-.427.573-.982.61-1.576.541-1.785.029-3.57.096-5.354.073-.259-.004-.52.002-.78.007-.206.004-.413.009-.619.009-.814 0-1.623-.068-2.387-.473" style="fill:url(#c);stroke:none" transform="matrix(1.33333 0 0 -1.33333 0 113.333)"/><g clip-path="url(#d)" transform="matrix(1.33333 0 0 -1.33333 0 113.333)"><path d="M0 0v21.782h4.812v-9.118h6.396V8.042H4.812V0Zm-6.712-13.74v11.207H-1.9v-6.585h6.712v-4.622ZM-13.74 4.749c1.203 0 1.899 1.013 1.899 1.899 0 .887-.696 1.9-1.899 1.9-1.077 0-1.836-1.013-1.836-1.9 0-.886.759-1.899 1.836-1.899m-6.142 3.926h-2.216v3.989h6.015v4.875h4.749v-4.875h5.889V8.675h-2.153c.19-.633.316-1.33.316-2.027 0-3.545-2.912-6.268-6.458-6.268-3.483 0-6.459 2.723-6.459 6.268 0 .697.064 1.394.317 2.027" style="fill:#fb8024;fill-opacity:1;fill-rule:nonzero;stroke:none" transform="translate(134.41 19.819)"/><path d="M169.615 41.6h4.812V19.818h-4.812zm-1.077-31.976V8.611l5.826-5.382L171.388 0l-5.129 4.686L161.13 0l-3.039 3.292 5.825 5.319v1.013h-6.079v4.623h6.016v4.242h4.749v-4.242h5.825V9.624Zm-15.196 14.69h4.812v3.673h-4.812zm-4.559-4.495v17.539h4.559v-4.875h4.812v4.875h4.559V19.819Z" style="fill:#fb8024;fill-opacity:1;fill-rule:nonzero;stroke:none"/><path d="M0 0c1.076 0 1.71.95 1.71 1.71 0 .823-.57 1.772-1.71 1.772-1.076 0-1.71-.949-1.71-1.772C-1.71.95-1.013 0 0 0m-3.482 24.251h6.711v9.118h4.813V11.587H3.229v8.042h-6.711ZM0 8.168c3.546 0 6.458-2.786 6.458-6.458 0-3.546-2.912-6.269-6.458-6.269-3.482 0-6.459 2.723-6.459 6.269 0 3.672 2.977 6.458 6.459 6.458m-11.904 11.461 5.825-5.382-2.976-3.23-5.129 4.686-5.128-4.686-3.04 3.293 5.826 5.319h-5.889v4.622h5.825v4.876h4.749v-4.876h5.636v-4.622z" style="fill:#7fc230;fill-opacity:1;fill-rule:nonzero;stroke:none" transform="translate(200.768 8.232)"/><path d="m0 0 5.826-5.319L2.85-8.548l-5.129 4.685-5.129-4.685-3.04 3.292L-4.622 0v5.445H0Zm.127-8.801v-6.269h8.928v-4.622h-22.922v4.622h9.245v6.269z" style="fill:#7fc230;fill-opacity:1;fill-rule:nonzero;stroke:none" transform="translate(227.17 47.553)"/><path d="M0 0v11.207h4.812V4.622h6.712V0zm-1.013 30.393h7.725v9.118h4.812V14.247H6.712v3.482h-7.725v4.623h7.725v3.419h-7.725zm-2.596-8.041v-4.623h-13.93v12.664h4.812v-8.041z" style="fill:#7fc230;fill-opacity:1;fill-rule:nonzero;stroke:none" transform="translate(256.804 2.09)"/><path d="M0 0v8.042h-3.609V0h-4.813v21.782h4.813v-9.118H0v9.118h4.812V0Zm-17.16 8.042 5.826-5.383L-14.31-.57l-5.129 4.686-5.129-4.686-3.039 3.293 5.825 5.319h-5.762v4.622h15.957V8.042Z" style="fill:#19a1c5;fill-opacity:1;fill-rule:nonzero;stroke:none" transform="translate(300.05 19.819)"/><path d="M0 0v21.782h4.812v-9.118h6.396V8.042H4.812V0Zm-6.712-13.74v11.207H-1.9v-6.585h6.712v-4.622Zm-.506 18.362V0h-13.93v12.664h13.93V8.042h-9.118v-3.42z" style="fill:#19a1c5;fill-opacity:1;fill-rule:nonzero;stroke:none" transform="translate(331.076 19.819)"/><path d="M0 0v10.485h2.106V6.096h2.798V3.871H2.106V0Zm-5.237 3.962 2.549-2.56L-3.99-.152l-2.244 2.255-2.245-2.255-1.33 1.585 2.549 2.529v2.926h2.023z" style="fill:#98999a;fill-opacity:1;fill-rule:nonzero;stroke:none" transform="translate(159.792 54.825)"/><path d="M0 0v10.485h2.106V6.096h2.799V3.871H2.106V0Zm-2.937-6.614v5.395h2.106v-3.17h2.937v-2.225Zm-.222 8.839V0h-6.095v6.096h6.095V3.871h-3.99V2.225Z" style="fill:#98999a;fill-opacity:1;fill-rule:nonzero;stroke:none" transform="translate(175.31 54.825)"/><path d="M190.965 46.961h1.524v1.859h-1.524zm-1.968 13.96h3.464v4.389h2.106V54.825h-2.106v3.871h-3.464zm-.111-16.154v8.29h2.079v-2.073h1.523v2.073h2.079v-8.29zm-5.292 12.222h2.106v1.768h-2.106zm-1.995-2.164v8.443h1.995v-2.347h2.106v2.347h1.995v-8.443zM205.954 65.31h2.106V54.825h-2.106zm-2.936-17.099v5.395h2.105v-3.17h2.938v-2.225zm-3.547 8.931c.526 0 .831.487.831.914 0 .427-.305.914-.831.914-.471 0-.804-.487-.804-.914 0-.427.333-.914.804-.914m0 4.023c1.551 0 2.826-1.341 2.826-3.109 0-1.707-1.275-3.018-2.826-3.018-1.524 0-2.826 1.311-2.826 3.018 0 1.768 1.302 3.109 2.826 3.109" style="fill:#98999a;fill-opacity:1;fill-rule:nonzero;stroke:none"/></g></svg>